# xmcd
#
# Track frame offsets: 
#        182
#        23750
#        48290
#        78570
#        101115
#        124422
#        138502
#        154352
#        177817
#        201745
#        223860
#        262752
#
# Disc length: 3850 seconds
#
# Revision: 5
# Processed by: cddbd v1.5PL3 Copyright (c) Steve Scherf et al.
# Submitted via: ExactAudioCopy v0.95a5
#
DISCID=b20f080c
DTITLE=Robben Ford - Tiger Walk
DYEAR=1997
DGENRE=US Blues
TTITLE0=In The Beginning
TTITLE1=Ghosts
TTITLE2=Freedom
TTITLE3=Red Lady W/ Cello
TTITLE4=Oasis
TTITLE5=Just Like It Is
TTITLE6=I Can't Stand The Rain
TTITLE7=The Champ
TTITLE8=Tiger Walk
TTITLE9=Comin' Up
TTITLE10=Don't Let The Sun Catch You Crying  (Bonus Track)
TTITLE11=Chevrolet  (Bonus Track)
EXTD=YEAR: 1997\n\nTrack Titles corrected - \nTracks 11 and 12 were wro
EXTD=ng\n\n\n\n\n
EXTT0=
EXTT1=
EXTT2=
EXTT3=
EXTT4=
EXTT5=
EXTT6=
EXTT7=
EXTT8=
EXTT9=
EXTT10=
EXTT11=
PLAYORDER=
